<mxfile host="Electron" agent="Mozilla/5.0 (Windows NT 10.0; Win64; x64) AppleWebKit/537.36 (KHTML, like Gecko) draw.io/24.7.17 Chrome/128.0.6613.36 Electron/32.0.1 Safari/537.36" version="24.7.17">
  <diagram name="第 1 页" id="8QHtdp209aVNbN8YEdJT">
    <mxGraphModel dx="1106" dy="811" grid="1" gridSize="10" guides="1" tooltips="1" connect="1" arrows="1" fold="1" page="1" pageScale="1" pageWidth="827" pageHeight="1169" math="0" shadow="0">
      <root>
        <mxCell id="0" />
        <mxCell id="1" parent="0" />
        <mxCell id="D7b9zZReEMxwHK4Lcy-2-8" style="rounded=0;orthogonalLoop=1;jettySize=auto;html=1;fontFamily=Helvetica;fontSize=12;fontColor=default;" edge="1" parent="1" source="D7b9zZReEMxwHK4Lcy-2-1" target="D7b9zZReEMxwHK4Lcy-2-2">
          <mxGeometry relative="1" as="geometry" />
        </mxCell>
        <mxCell id="D7b9zZReEMxwHK4Lcy-2-9" style="edgeStyle=none;shape=connector;rounded=0;orthogonalLoop=1;jettySize=auto;html=1;entryX=1;entryY=0;entryDx=0;entryDy=0;strokeColor=default;align=center;verticalAlign=middle;fontFamily=Helvetica;fontSize=12;fontColor=default;labelBackgroundColor=default;endArrow=classic;" edge="1" parent="1" source="D7b9zZReEMxwHK4Lcy-2-1" target="D7b9zZReEMxwHK4Lcy-2-3">
          <mxGeometry relative="1" as="geometry" />
        </mxCell>
        <mxCell id="D7b9zZReEMxwHK4Lcy-2-1" value="&lt;font style=&quot;font-size: 24px;&quot;&gt;0&lt;/font&gt;" style="ellipse;whiteSpace=wrap;html=1;aspect=fixed;" vertex="1" parent="1">
          <mxGeometry x="340" y="60" width="80" height="80" as="geometry" />
        </mxCell>
        <mxCell id="D7b9zZReEMxwHK4Lcy-2-10" style="edgeStyle=none;shape=connector;rounded=0;orthogonalLoop=1;jettySize=auto;html=1;strokeColor=default;align=center;verticalAlign=middle;fontFamily=Helvetica;fontSize=12;fontColor=default;labelBackgroundColor=default;endArrow=classic;" edge="1" parent="1" source="D7b9zZReEMxwHK4Lcy-2-2" target="D7b9zZReEMxwHK4Lcy-2-7">
          <mxGeometry relative="1" as="geometry" />
        </mxCell>
        <mxCell id="D7b9zZReEMxwHK4Lcy-2-11" style="edgeStyle=none;shape=connector;rounded=0;orthogonalLoop=1;jettySize=auto;html=1;entryX=1;entryY=0;entryDx=0;entryDy=0;strokeColor=default;align=center;verticalAlign=middle;fontFamily=Helvetica;fontSize=12;fontColor=default;labelBackgroundColor=default;endArrow=classic;" edge="1" parent="1" source="D7b9zZReEMxwHK4Lcy-2-2" target="D7b9zZReEMxwHK4Lcy-2-6">
          <mxGeometry relative="1" as="geometry" />
        </mxCell>
        <mxCell id="D7b9zZReEMxwHK4Lcy-2-2" value="6" style="ellipse;whiteSpace=wrap;html=1;aspect=fixed;strokeColor=default;align=center;verticalAlign=middle;fontFamily=Helvetica;fontSize=12;fontColor=default;fillColor=default;" vertex="1" parent="1">
          <mxGeometry x="460" y="200" width="80" height="80" as="geometry" />
        </mxCell>
        <mxCell id="D7b9zZReEMxwHK4Lcy-2-3" value="-10" style="ellipse;whiteSpace=wrap;html=1;aspect=fixed;strokeColor=default;align=center;verticalAlign=middle;fontFamily=Helvetica;fontSize=12;fontColor=default;fillColor=default;" vertex="1" parent="1">
          <mxGeometry x="210" y="200" width="80" height="80" as="geometry" />
        </mxCell>
        <mxCell id="D7b9zZReEMxwHK4Lcy-2-5" value="17" style="ellipse;whiteSpace=wrap;html=1;aspect=fixed;strokeColor=default;align=center;verticalAlign=middle;fontFamily=Helvetica;fontSize=12;fontColor=default;fillColor=default;" vertex="1" parent="1">
          <mxGeometry x="660" y="460" width="80" height="80" as="geometry" />
        </mxCell>
        <mxCell id="D7b9zZReEMxwHK4Lcy-2-6" value="5" style="ellipse;whiteSpace=wrap;html=1;aspect=fixed;strokeColor=default;align=center;verticalAlign=middle;fontFamily=Helvetica;fontSize=12;fontColor=default;fillColor=default;" vertex="1" parent="1">
          <mxGeometry x="374" y="330" width="80" height="80" as="geometry" />
        </mxCell>
        <mxCell id="D7b9zZReEMxwHK4Lcy-2-12" style="edgeStyle=none;shape=connector;rounded=0;orthogonalLoop=1;jettySize=auto;html=1;strokeColor=default;align=center;verticalAlign=middle;fontFamily=Helvetica;fontSize=12;fontColor=default;labelBackgroundColor=default;endArrow=classic;" edge="1" parent="1" source="D7b9zZReEMxwHK4Lcy-2-7" target="D7b9zZReEMxwHK4Lcy-2-5">
          <mxGeometry relative="1" as="geometry" />
        </mxCell>
        <mxCell id="D7b9zZReEMxwHK4Lcy-2-7" value="15" style="ellipse;whiteSpace=wrap;html=1;aspect=fixed;strokeColor=default;align=center;verticalAlign=middle;fontFamily=Helvetica;fontSize=12;fontColor=default;fillColor=default;" vertex="1" parent="1">
          <mxGeometry x="580" y="330" width="80" height="80" as="geometry" />
        </mxCell>
        <mxCell id="D7b9zZReEMxwHK4Lcy-2-14" value="&lt;font style=&quot;font-size: 36px;&quot;&gt;整理前&lt;/font&gt;" style="text;html=1;align=center;verticalAlign=middle;resizable=0;points=[];autosize=1;strokeColor=none;fillColor=none;fontFamily=Helvetica;fontSize=12;fontColor=default;labelBackgroundColor=default;" vertex="1" parent="1">
          <mxGeometry x="50" y="70" width="130" height="60" as="geometry" />
        </mxCell>
        <mxCell id="D7b9zZReEMxwHK4Lcy-2-16" style="edgeStyle=none;shape=connector;rounded=0;orthogonalLoop=1;jettySize=auto;html=1;entryX=1;entryY=0;entryDx=0;entryDy=0;strokeColor=default;align=center;verticalAlign=middle;fontFamily=Helvetica;fontSize=12;fontColor=default;labelBackgroundColor=default;endArrow=classic;" edge="1" parent="1" source="D7b9zZReEMxwHK4Lcy-2-17" target="D7b9zZReEMxwHK4Lcy-2-21">
          <mxGeometry relative="1" as="geometry" />
        </mxCell>
        <mxCell id="D7b9zZReEMxwHK4Lcy-2-17" value="&lt;font style=&quot;font-size: 24px;&quot;&gt;0&lt;/font&gt;" style="ellipse;whiteSpace=wrap;html=1;aspect=fixed;" vertex="1" parent="1">
          <mxGeometry x="210" y="710" width="80" height="80" as="geometry" />
        </mxCell>
        <mxCell id="D7b9zZReEMxwHK4Lcy-2-18" style="edgeStyle=none;shape=connector;rounded=0;orthogonalLoop=1;jettySize=auto;html=1;strokeColor=default;align=center;verticalAlign=middle;fontFamily=Helvetica;fontSize=12;fontColor=default;labelBackgroundColor=default;endArrow=classic;" edge="1" parent="1" source="D7b9zZReEMxwHK4Lcy-2-20" target="D7b9zZReEMxwHK4Lcy-2-25">
          <mxGeometry relative="1" as="geometry" />
        </mxCell>
        <mxCell id="D7b9zZReEMxwHK4Lcy-2-29" style="edgeStyle=none;shape=connector;rounded=0;orthogonalLoop=1;jettySize=auto;html=1;strokeColor=default;align=center;verticalAlign=middle;fontFamily=Helvetica;fontSize=12;fontColor=default;labelBackgroundColor=default;endArrow=classic;" edge="1" parent="1" source="D7b9zZReEMxwHK4Lcy-2-20" target="D7b9zZReEMxwHK4Lcy-2-17">
          <mxGeometry relative="1" as="geometry" />
        </mxCell>
        <mxCell id="D7b9zZReEMxwHK4Lcy-2-20" value="6" style="ellipse;whiteSpace=wrap;html=1;aspect=fixed;strokeColor=default;align=center;verticalAlign=middle;fontFamily=Helvetica;fontSize=12;fontColor=default;fillColor=default;" vertex="1" parent="1">
          <mxGeometry x="374" y="550" width="80" height="80" as="geometry" />
        </mxCell>
        <mxCell id="D7b9zZReEMxwHK4Lcy-2-21" value="-10" style="ellipse;whiteSpace=wrap;html=1;aspect=fixed;strokeColor=default;align=center;verticalAlign=middle;fontFamily=Helvetica;fontSize=12;fontColor=default;fillColor=default;" vertex="1" parent="1">
          <mxGeometry x="80" y="900" width="80" height="80" as="geometry" />
        </mxCell>
        <mxCell id="D7b9zZReEMxwHK4Lcy-2-22" value="17" style="ellipse;whiteSpace=wrap;html=1;aspect=fixed;strokeColor=default;align=center;verticalAlign=middle;fontFamily=Helvetica;fontSize=12;fontColor=default;fillColor=default;" vertex="1" parent="1">
          <mxGeometry x="600" y="890" width="80" height="80" as="geometry" />
        </mxCell>
        <mxCell id="D7b9zZReEMxwHK4Lcy-2-23" value="5" style="ellipse;whiteSpace=wrap;html=1;aspect=fixed;strokeColor=default;align=center;verticalAlign=middle;fontFamily=Helvetica;fontSize=12;fontColor=default;fillColor=default;" vertex="1" parent="1">
          <mxGeometry x="310" y="900" width="80" height="80" as="geometry" />
        </mxCell>
        <mxCell id="D7b9zZReEMxwHK4Lcy-2-24" style="edgeStyle=none;shape=connector;rounded=0;orthogonalLoop=1;jettySize=auto;html=1;strokeColor=default;align=center;verticalAlign=middle;fontFamily=Helvetica;fontSize=12;fontColor=default;labelBackgroundColor=default;endArrow=classic;" edge="1" parent="1" source="D7b9zZReEMxwHK4Lcy-2-25" target="D7b9zZReEMxwHK4Lcy-2-22">
          <mxGeometry relative="1" as="geometry" />
        </mxCell>
        <mxCell id="D7b9zZReEMxwHK4Lcy-2-25" value="15" style="ellipse;whiteSpace=wrap;html=1;aspect=fixed;strokeColor=default;align=center;verticalAlign=middle;fontFamily=Helvetica;fontSize=12;fontColor=default;fillColor=default;" vertex="1" parent="1">
          <mxGeometry x="510" y="730" width="80" height="80" as="geometry" />
        </mxCell>
        <mxCell id="D7b9zZReEMxwHK4Lcy-2-27" value="&lt;font style=&quot;font-size: 36px;&quot;&gt;整理后（预期）&lt;/font&gt;" style="text;html=1;align=center;verticalAlign=middle;resizable=0;points=[];autosize=1;strokeColor=none;fillColor=none;fontFamily=Helvetica;fontSize=12;fontColor=default;labelBackgroundColor=default;" vertex="1" parent="1">
          <mxGeometry x="10" y="585" width="280" height="60" as="geometry" />
        </mxCell>
        <mxCell id="D7b9zZReEMxwHK4Lcy-2-28" style="edgeStyle=none;shape=connector;rounded=0;orthogonalLoop=1;jettySize=auto;html=1;entryX=0.021;entryY=0.267;entryDx=0;entryDy=0;entryPerimeter=0;strokeColor=default;align=center;verticalAlign=middle;fontFamily=Helvetica;fontSize=12;fontColor=default;labelBackgroundColor=default;endArrow=classic;" edge="1" parent="1" source="D7b9zZReEMxwHK4Lcy-2-17" target="D7b9zZReEMxwHK4Lcy-2-23">
          <mxGeometry relative="1" as="geometry" />
        </mxCell>
        <mxCell id="D7b9zZReEMxwHK4Lcy-2-30" value="0 -10 6 5 15 17" style="text;html=1;align=center;verticalAlign=middle;resizable=0;points=[];autosize=1;strokeColor=none;fillColor=none;fontFamily=Helvetica;fontSize=12;fontColor=default;labelBackgroundColor=default;" vertex="1" parent="1">
          <mxGeometry x="10" y="248" width="100" height="30" as="geometry" />
        </mxCell>
        <mxCell id="D7b9zZReEMxwHK4Lcy-2-31" value="6 0 15 -10 5 17" style="text;html=1;align=center;verticalAlign=middle;resizable=0;points=[];autosize=1;strokeColor=none;fillColor=none;fontFamily=Helvetica;fontSize=12;fontColor=default;labelBackgroundColor=default;" vertex="1" parent="1">
          <mxGeometry x="70" y="668" width="100" height="30" as="geometry" />
        </mxCell>
      </root>
    </mxGraphModel>
  </diagram>
</mxfile>
